# xmcd CD database file
#
# Track frame offsets:
#	150
#	18670
#	40501
#	50524
#	71798
#	99919
#	122476
#	127033
#	144317
#	170927
#	179268
#
# Disc length: 2775 seconds
#
# Revision: 1
# Processed by: cddbd v1.4PL0 Copyright (c) Steve Scherf et al.
# Submitted via: CDex 1.50beta10
#
DISCID=990ad50b
DTITLE=LO-FI - Fragments of Nightsongs
DYEAR=2002
DGENRE=New Age
TTITLE0=Angel 04
TTITLE1=Song2 (Devil's Eyes)
TTITLE2=Part Of A Girl
TTITLE3=Need
TTITLE4=Nightsong
TTITLE5=Time (Machine Mix)
TTITLE6=Nana For Nana
TTITLE7=All The Things We Lost
TTITLE8=Roads
TTITLE9=Velvet
TTITLE10=Perfect
EXTD=YEAR: 2002
EXTT0=
EXTT1=
EXTT2=
EXTT3=
EXTT4=
EXTT5=
EXTT6=
EXTT7=
EXTT8=
EXTT9=
EXTT10=
PLAYORDER=
